<?xml version="1.0" encoding="iso-8859-1"?>
<!-- Generator: Adobe Illustrator 19.0.0, SVG Export Plug-In . SVG Version: 6.00 Build 0)  -->
<svg version="1.1" id="Layer_1" xmlns="http://www.w3.org/2000/svg" xmlns:xlink="http://www.w3.org/1999/xlink" x="0px" y="0px"
	 viewBox="0 0 512 512" style="enable-background:new 0 0 512 512;" xml:space="preserve">
<g>
	<g>
		<path d="M50.086,244.87C22.468,244.87,0,267.337,0,294.956s22.468,50.086,50.086,50.086c27.619,0,50.086-22.468,50.086-50.086
			S77.705,244.87,50.086,244.87z"/>
	</g>
</g>
<g>
	<g>
		<path d="M478.604,278.261h-44.521V50.089c0-27.619-22.468-50.086-50.086-50.086h-66.782c-27.619,0-50.086,22.468-50.086,50.086
			v19.772c-19.391,6.914-33.391,25.273-33.391,47.01v0.343c-20.804,15.679-33.391,40.331-33.391,66.439v33.391
			c0,9.223,7.478,16.695,16.695,16.695h133.564c9.217,0,16.695-7.473,16.695-16.695v-33.391c0-26.108-12.587-50.76-33.391-66.439
			v-0.343c0-21.736-14-40.096-33.391-47.01V50.089c0-9.206,7.49-16.695,16.695-16.695h66.782c9.206,0,16.695,7.49,16.695,16.695
			v228.171H166.955c-18.328,0-33.23,14.847-33.366,33.144l-0.019-0.007c0,3.769,0,51.017,0,70.29L103.7,441.406
			c-8.233,16.473-1.533,36.575,14.935,44.81c16.141,8.069,36.36,1.957,44.804-14.936l33.391-66.782
			c2.304-4.603,3.522-9.771,3.522-14.935v-44.521h278.252c18.418,0,33.396-14.978,33.396-33.391
			C512,293.239,497.022,278.261,478.604,278.261z"/>
	</g>
</g>
<g>
	<g>
		<path d="M33.391,378.433C14.978,378.433,0,393.411,0,411.824s14.978,33.391,33.391,33.391v50.086
			c0,9.223,7.478,16.695,16.695,16.695c9.217,0,16.695-7.473,16.695-16.695v-50.086h0.943c2.143-12.727,4.268-15.066,30.133-66.782
			H33.391z"/>
	</g>
</g>
<g>
	<g>
		<path d="M478.598,378.433H233.737c0,30.091-0.701,28.303-19.938,66.782h231.414v50.086c0,9.223,7.478,16.695,16.695,16.695
			s16.695-7.473,16.695-16.695v-50.088c18.415-0.002,33.391-14.979,33.391-33.39C511.994,393.411,497.016,378.433,478.598,378.433z"
			/>
	</g>
</g>
<g>
</g>
<g>
</g>
<g>
</g>
<g>
</g>
<g>
</g>
<g>
</g>
<g>
</g>
<g>
</g>
<g>
</g>
<g>
</g>
<g>
</g>
<g>
</g>
<g>
</g>
<g>
</g>
<g>
</g>
</svg>
