<svg xmlns="http://www.w3.org/2000/svg" data-name="Layer 1" viewBox="0 0 100 125" x="0px" y="0px"><title>93all</title><path d="M50,42.62A12.12,12.12,0,1,0,37.94,30.5,12.11,12.11,0,0,0,50,42.62Z"/><path d="M89.2,58.19a3,3,0,0,0-3-2.47H67.46l4-5.37A28.6,28.6,0,0,0,77.3,31.42C76.31,16.62,64.21,5,49.75,5S23.19,16.62,22.2,31.42A28.6,28.6,0,0,0,28,50.35l4,5.37H13.75a3,3,0,0,0-3,2.47l-6,33.25a3,3,0,0,0,3,3.53h84.5a3,3,0,0,0,3-3.53Zm-61-26.36C28.87,21.6,37.12,11,49.75,11S70.63,21.6,71.32,31.82a22.6,22.6,0,0,1-4.65,14.94L49.75,69.4,32.83,46.76A22.6,22.6,0,0,1,28.18,31.82ZM11.34,89l4.92-27.25H36.52L47.35,76.2a3,3,0,0,0,4.81,0L63,61.72H83.74L88.66,89Z"/><text x="0" y="115" fill="#000000" font-size="5px" font-weight="bold" font-family="'Helvetica Neue', Helvetica, Arial-Unicode, Arial, Sans-serif">Created by Focus</text><text x="0" y="120" fill="#000000" font-size="5px" font-weight="bold" font-family="'Helvetica Neue', Helvetica, Arial-Unicode, Arial, Sans-serif">from the Noun Project</text></svg>