<svg xmlns="http://www.w3.org/2000/svg" xmlns:xlink="http://www.w3.org/1999/xlink" version="1.1" x="0px" y="0px" viewBox="0 0 100 125" enable-background="new 0 0 100 100" xml:space="preserve"><g><path fill="#000000" d="M41.934,95c5.377,0,10.754,0,16.132,0c-1.774-10.647-3.55-21.295-5.324-31.942   c0.849-0.579,1.555-1.23,2.129-2.095c0.352-0.528,0.606-1.062,0.723-1.695c0.072-0.395,0.112-0.738-0.098-1.119   c-0.855-1.557-4.15-1.865-5.496-1.865s-4.64,0.309-5.496,1.864c-0.21,0.382-0.17,0.726-0.098,1.12   c0.115,0.633,0.37,1.166,0.721,1.695c0.575,0.864,1.281,1.516,2.13,2.095C45.483,73.705,43.708,84.353,41.934,95z"/></g><g><path fill="#000000" d="M31.412,62.783l2.567,12.836L37.055,91H13.696c0.302-7.087,3.205-13.707,8.252-18.754L31.412,62.783    M33.868,54.67c-4.917,4.916-9.833,9.832-14.749,14.748c-6.05,6.051-9.45,14.257-9.45,22.814c0,0.923,0,1.845,0,2.768   c10.755,0,21.509,0,32.264,0C39.246,81.557,36.557,68.113,33.868,54.67L33.868,54.67z"/></g><g><path fill="#000000" d="M68.589,62.783l9.463,9.463c5.047,5.047,7.95,11.667,8.252,18.754H62.945L68.589,62.783 M66.132,54.67   C63.443,68.113,60.755,81.557,58.066,95c10.754,0,21.509,0,32.264,0c0-0.923,0-1.845,0-2.768c0-8.558-3.399-16.764-9.45-22.814   C75.964,64.502,71.048,59.586,66.132,54.67L66.132,54.67z"/></g><polygon fill="#000000" points="80.231,76.868 76.198,76.868 76.198,72.835 72.198,72.835 72.198,76.868 68.165,76.868   68.165,80.868 72.198,80.868 72.198,84.901 76.198,84.901 76.198,80.868 80.231,80.868 "/><path fill="#000000" d="M66.225,26.637c-0.738-0.829-1.563-1.198-2.674-1.198h-7.23c-0.712,0-1.687,0-2.631,0.694  c-0.672,0.492-1.088,1.098-1.313,1.887h-4.76c-0.124-0.459-0.343-0.925-0.75-1.382c-0.738-0.829-1.563-1.199-2.674-1.199h-7.241  c-0.708,0-1.676,0-2.623,0.694c-0.679,0.499-1.101,1.109-1.329,1.921c-0.132,0.473-0.132,0.908-0.132,1.302v1.933  c0,0.941,0,2.007,0.917,3.027c0.738,0.822,1.559,1.188,2.664,1.188h7.135c0,0,0.092,0,0.092,0c0.713,0,1.689,0,2.636-0.695  c0.7-0.515,1.127-1.146,1.347-1.986c0.115-0.443,0.114-0.851,0.114-1.252V30.02h4.453v1.269c0,0.937,0,1.998,0.906,3.017  c0.739,0.83,1.564,1.199,2.675,1.199h7.135c0,0,0.092,0,0.093,0c0.713,0,1.688,0,2.635-0.694c0.7-0.514,1.129-1.146,1.347-1.986  c0.115-0.444,0.115-0.852,0.115-1.253v-1.917C67.132,28.717,67.132,27.655,66.225,26.637z M45.773,31.614  c0,0.274,0,0.512-0.05,0.707c-0.104,0.397-0.265,0.635-0.595,0.877c-0.376,0.276-0.749,0.307-1.452,0.307h-7.228  c-0.534,0-0.82-0.127-1.176-0.524c-0.388-0.432-0.405-0.853-0.405-1.691v-1.943c0-0.292,0-0.544,0.058-0.752  c0.107-0.383,0.267-0.613,0.587-0.849c0.376-0.276,0.745-0.307,1.438-0.307h7.241c0.537,0,0.824,0.128,1.181,0.529  c0.383,0.431,0.4,0.852,0.4,1.687V31.614z M65.132,31.614c0,0.274,0,0.511-0.051,0.708c-0.104,0.397-0.265,0.634-0.595,0.877  c-0.377,0.276-0.749,0.307-1.451,0.307h-7.228c-0.537,0-0.824-0.129-1.181-0.529c-0.384-0.431-0.4-0.852-0.4-1.687V29.33  c0-0.274,0-0.511,0.051-0.708c0.104-0.396,0.264-0.634,0.595-0.876c0.376-0.276,0.747-0.307,1.448-0.307h7.23  c0.537,0,0.824,0.128,1.181,0.529c0.384,0.43,0.4,0.851,0.4,1.687V31.614z"/><path fill="#000000" d="M75.99,27.756c-0.681-2.658-2.372-4.325-4.437-4.417C70.502,12.139,61.235,5,50,5  c-11.235,0-20.501,7.139-21.554,18.339c-2.064,0.093-3.756,1.76-4.436,4.417c-0.68,2.653-0.245,5.42,0.075,6.834  c0.461,2.04,1.144,3.698,2.148,5.22c0.752,1.139,2.263,2.976,4.354,3.316C34.452,51.398,41.942,56.67,50,56.67  c8.059,0,15.549-5.271,19.413-13.544c2.091-0.341,3.603-2.178,4.354-3.317c1.002-1.518,1.685-3.176,2.148-5.219  C76.235,33.176,76.67,30.409,75.99,27.756z M72.015,33.706c-0.354,1.558-0.857,2.796-1.585,3.899  c-0.705,1.068-1.423,1.569-1.732,1.569c-0.002,0-0.004,0-0.006,0l-1.739-0.519l-0.685,1.682C63.841,46.299,58.293,52.67,50,52.67  c-8.292,0-13.84-6.371-16.267-12.333l-0.726-1.674l-1.739,0.518c-0.265,0-0.987-0.5-1.696-1.574  c-0.73-1.106-1.233-2.345-1.585-3.899c-0.409-1.808-0.446-3.615-0.102-4.959c0.246-0.959,0.639-1.383,0.739-1.426  c0.001,0,0.155,0.003,0.48,0.216l2.581,1.7l0.493-3.051c0.199-1.233,0.473-2.403,0.839-3.578c0.555-1.786,1.934-3.24,3.688-3.889  c8.54-3.158,18.053-3.158,26.589,0c1.755,0.649,3.134,2.103,3.689,3.889c0.364,1.171,0.639,2.342,0.839,3.579l0.494,3.05l2.581-1.7  c0.313-0.207,0.467-0.216,0.464-0.219c0.116,0.048,0.509,0.473,0.754,1.43C72.46,30.093,72.423,31.9,72.015,33.706z"/></svg>